<?xml version="1.0" standalone="no"?>
<!DOCTYPE svg PUBLIC "-//W3C//DTD SVG 20010904//EN"
 "http://www.w3.org/TR/2001/REC-SVG-20010904/DTD/svg10.dtd">
<svg version="1.0" xmlns="http://www.w3.org/2000/svg"
 width="900.000000pt" height="568.000000pt" viewBox="0 0 900.000000 568.000000"
 preserveAspectRatio="xMidYMid meet">

<g transform="translate(0.000000,568.000000) scale(0.100000,-0.100000)"
fill="#0048CE" stroke="none">
<path d="M3779 5052 c-980 -868 -1389 -1230 -1859 -1646 -223 -197 -409 -362
-413 -366 -7 -6 296 -360 309 -360 2 0 219 191 482 424 1346 1195 2197 1946
2203 1946 5 0 548 -480 1924 -1700 116 -102 329 -292 475 -421 146 -129 270
-238 277 -242 7 -5 69 58 168 168 l156 176 -53 48 c-29 26 -172 153 -318 282
-146 129 -429 380 -630 558 -201 178 -556 493 -789 700 -234 207 -510 452
-615 545 -495 438 -578 510 -595 511 -10 1 -309 -256 -722 -623z"/>
<path d="M2390 4734 l0 -566 43 39 c24 21 195 175 380 342 l337 304 0 224 0
223 -380 0 -380 0 0 -566z"/>
<path d="M4270 4457 c-124 -111 -385 -343 -580 -516 -1045 -925 -1290 -1144
-1290 -1151 0 -5 52 -65 116 -134 l115 -125 382 337 c1054 930 1449 1277 1455
1280 4 1 59 -46 122 -104 63 -59 348 -315 632 -570 284 -256 633 -571 775
-701 142 -130 260 -237 262 -239 5 -4 -17 -1634 -24 -1784 -2 -58 -5 -235 -6
-395 l-1 -290 137 -35 136 -35 36 21 c20 12 45 36 55 55 17 32 18 100 17 1379
l0 1345 -776 685 c-426 377 -900 796 -1053 933 -154 136 -280 247 -282 246 -2
0 -104 -91 -228 -202z"/>
</g>
</svg>
