<svg viewBox="0 0 13 11" fill="none" xmlns="http://www.w3.org/2000/svg">
<path d="M0.757328 4.4575L8.11556 1.41949C8.84191 1.10303 11.3052 0.0903605 11.3052 0.0903605C11.3052 0.0903605 12.4421 -0.352683 12.3473 0.72328C12.3158 1.16632 12.0631 2.71697 11.8105 4.39421L11.021 9.36262C11.021 9.36262 10.9578 10.0905 10.4209 10.2171C9.88406 10.3436 8.99981 9.77402 8.84191 9.64744C8.71559 9.5525 6.47338 8.12843 5.65229 7.43222C5.43123 7.24234 5.17858 6.86259 5.68387 6.41955C6.82077 5.37523 8.17872 4.07775 8.99981 3.25496C9.37878 2.8752 9.75774 1.98912 8.17872 3.06508L3.72589 6.07144C3.72589 6.07144 3.2206 6.3879 2.27319 6.10309C1.32578 5.81828 0.220461 5.43853 0.220461 5.43853C0.220461 5.43853 -0.537469 4.96384 0.757328 4.4575V4.4575Z" fill="currentColor"/>
</svg>
