<svg viewBox="0 0 17 17" fill="none" xmlns="http://www.w3.org/2000/svg">
<path d="M4.695 14.3036L4.95202 14.4552C6.03197 15.0933 7.27012 15.4307 8.53274 15.4314H8.5355C12.4132 15.4314 15.5691 12.2902 15.5706 8.42961C15.5712 6.55859 14.8401 4.79949 13.5119 3.47593C12.1835 2.15262 10.4174 1.42334 8.53801 1.42257C4.65743 1.42257 1.50148 4.56325 1.50002 8.42388C1.49951 9.74683 1.87124 11.0353 2.57558 12.1499L2.74299 12.4149L2.03211 14.9986L4.695 14.3036ZM0 17L1.2008 12.6349C0.460131 11.3573 0.0704875 9.90808 0.0710975 8.42349C0.072903 3.77878 3.8697 0 8.53567 0C10.7998 0.000971595 12.925 0.878224 14.5231 2.47052C16.121 4.0628 17.0007 6.17934 17 8.43029C16.998 13.0748 13.2004 16.8543 8.53567 16.8543C8.53533 16.8543 8.53584 16.8543 8.53567 16.8543H8.53206C7.11548 16.8538 5.72354 16.5 4.48727 15.8287L0 17Z" fill="currentColor"/>
<path fill-rule="evenodd" clip-rule="evenodd" d="M7.07377 5.59604C6.94473 5.30887 6.80896 5.30312 6.68623 5.29807C6.58579 5.29379 6.47091 5.29407 6.35617 5.29407C6.24129 5.29407 6.0547 5.33723 5.89692 5.50979C5.73901 5.68236 5.29407 6.0995 5.29407 6.94787C5.29407 7.79632 5.91131 8.61613 5.9973 8.73129C6.08344 8.84624 7.18881 10.6429 8.93926 11.3341C10.3942 11.9085 10.6902 11.7943 11.006 11.7655C11.3218 11.7368 12.025 11.3485 12.1685 10.9458C12.312 10.5432 12.312 10.1981 12.269 10.126C12.226 10.0541 12.1111 10.011 11.9389 9.92479C11.7666 9.83854 10.9199 9.42134 10.762 9.36379C10.6041 9.30631 10.4893 9.27761 10.3744 9.45025C10.2596 9.62267 9.92974 10.011 9.82922 10.126C9.72878 10.2412 9.62827 10.2556 9.45605 10.1694C9.28376 10.0828 8.72905 9.90092 8.07102 9.31355C7.559 8.85648 7.21336 8.29204 7.11285 8.11939C7.0124 7.94697 7.10212 7.85356 7.18848 7.76759C7.26586 7.69032 7.36077 7.56625 7.44691 7.46561C7.53284 7.36491 7.56151 7.29304 7.61892 7.17802C7.67639 7.06293 7.64766 6.96222 7.60462 6.87596C7.56151 6.78972 7.22681 5.93698 7.07367 5.59599" fill="currentColor"/>
</svg>
