<svg width="66" height="33" viewBox="0 0 66 33" fill="none" xmlns="http://www.w3.org/2000/svg">
<path d="M3.64868 8.29758C5.39208 8.29758 6.69962 7.23183 6.94868 5.63322V5.56978H5.7283V5.63322C5.41698 6.64821 4.69472 7.21915 3.64868 7.21915C2.17925 7.21915 1.23283 6.01384 1.23283 4.16148C1.23283 2.28374 2.17925 1.11649 3.64868 1.11649C4.70717 1.11649 5.44189 1.68743 5.7034 2.6263L5.7283 2.74048H6.96113V2.68974C6.71208 1.09112 5.39207 0 3.66113 0C1.41962 0 0 1.59862 0 4.14879C0 6.71165 1.41962 8.32295 3.66113 8.32295L3.64868 8.29758ZM9.62604 5.55709L11.743 8.1707H13.2125L10.6845 5.06228L13.1128 2.30911H11.7181L9.62604 4.71972H9.42679V2.30911H8.24377V8.1707H9.42679V5.55709H9.62604ZM15.7528 8.2722C16.5125 8.2722 17.1725 7.87889 17.5087 7.25721H17.5336V8.1707H18.7166V4.12341C18.7166 2.95617 17.8325 2.19493 16.4253 2.19493C15.0057 2.19493 14.1464 2.96886 14.0592 3.97116V4.0346H15.18V3.98385C15.2796 3.51442 15.703 3.19723 16.3879 3.19723C17.1226 3.19723 17.5336 3.57786 17.5336 4.22491V4.66897L15.9645 4.75779C14.5947 4.8466 13.8226 5.46828 13.8226 6.49596C13.8226 7.56171 14.5947 8.2722 15.7528 8.2722ZM15.0181 6.47059C15.0181 5.96309 15.4166 5.6459 16.1264 5.60784L17.5336 5.51903V5.97578C17.5336 6.73703 16.9109 7.30796 16.0766 7.30796C15.4415 7.30796 15.0181 6.99077 15.0181 6.47059ZM24.8309 8.1707V2.30911H23.6604V4.71972C23.4113 4.97347 22.9506 5.13841 22.4774 5.13841C21.6679 5.13841 21.2321 4.75779 21.2321 3.95848V2.30911H20.0615V4.09804C20.0615 5.36678 20.8087 6.17878 22.166 6.17878C22.7389 6.17878 23.2868 5.98847 23.623 5.64591H23.6604V8.1707H24.8309ZM28.0313 8.2722C28.7909 8.2722 29.4509 7.87889 29.7872 7.25721H29.8121V8.1707H30.9951V4.12341C30.9951 2.95617 30.1109 2.19493 28.7038 2.19493C27.2841 2.19493 26.4249 2.96886 26.3377 3.97116V4.0346H27.4585V3.98385C27.5581 3.51442 27.9815 3.19723 28.6664 3.19723C29.4011 3.19723 29.8121 3.57786 29.8121 4.22491V4.66897L28.243 4.75779C26.8732 4.8466 26.1011 5.46828 26.1011 6.49596C26.1011 7.56171 26.8732 8.2722 28.0313 8.2722ZM27.2966 6.47059C27.2966 5.96309 27.6951 5.6459 28.4049 5.60784L29.8121 5.51903V5.97578C29.8121 6.73703 29.1894 7.30796 28.3551 7.30796C27.72 7.30796 27.2966 6.99077 27.2966 6.47059ZM36.7608 2.30911H31.9789V3.26067H33.7721V8.1707H34.9551V3.26067H36.7608V2.30911ZM37.8442 8.1707H40.123C41.4555 8.1707 42.3147 7.38408 42.3147 6.14071C42.3147 4.89735 41.4555 4.11073 40.123 4.11073H39.0272V2.3218H37.8442V8.1707ZM40.0109 5.07497C40.6834 5.07497 41.1068 5.49366 41.1068 6.14071C41.1068 6.78777 40.6834 7.21915 40.0109 7.21915H39.0272V5.06228H40.0109V5.07497ZM0.647548 29.7393H5.45434C9.38944 29.7393 11.7057 27.2526 11.7057 23.0023V22.9896C11.7057 18.752 9.37698 16.3287 5.45434 16.3287H0.647548V29.7393ZM3.00113 27.7093V18.3587H5.20528C7.82038 18.3587 9.31472 20.0081 9.31472 22.9896V23.015C9.31472 26.06 7.85774 27.7093 5.20528 27.7093H3.00113ZM17.2347 29.9296C19.7502 29.9296 21.1823 28.4072 21.4687 26.8847L21.506 26.7958H19.3891L19.3641 26.8593C19.14 27.519 18.4053 28.128 17.2721 28.128C15.8026 28.128 14.8687 27.113 14.8313 25.3749H21.5932V24.639C21.5932 21.6701 19.8872 19.6909 17.1102 19.6909C14.3581 19.6909 12.5774 21.7209 12.5774 24.8293V24.842C12.5774 27.9758 14.3208 29.9296 17.2347 29.9296ZM17.1475 21.4925C18.3555 21.4925 19.2272 22.2791 19.3891 23.8397H14.8562C15.043 22.3172 15.9396 21.4925 17.1475 21.4925ZM26.4747 29.9296C28.8408 29.9296 30.5219 28.6863 30.5219 26.8339V26.8212C30.5219 25.3875 29.7498 24.5882 27.7574 24.1315L26.1385 23.7762C25.1423 23.5352 24.7687 23.1672 24.7687 22.5963C24.7687 21.8731 25.3913 21.391 26.3875 21.391C27.4585 21.391 28.0687 21.9746 28.1808 22.7612V22.8374H30.2977V22.7359C30.2106 21.0358 28.8034 19.6909 26.4 19.6909C24.0589 19.6909 22.5147 20.8962 22.5147 22.7105C22.5147 24.1696 23.4487 25.0957 25.3041 25.5017L26.9106 25.8824C27.9068 26.1107 28.243 26.4406 28.243 27.0242V27.0496C28.243 27.7728 27.583 28.2295 26.4747 28.2295C25.3291 28.2295 24.694 27.722 24.5321 26.872L24.5072 26.7958H22.2657L22.2781 26.872C22.4774 28.7117 23.9343 29.9296 26.4747 29.9296ZM31.7049 29.7393H33.9713V26.3137L34.7434 25.5017L37.7943 29.7393H40.4094L36.4245 24.1315L40.26 19.8939H37.6449L34.0211 23.9792H33.9713V16.3287H31.7049V29.7393ZM44.5064 29.9296C44.9672 29.9296 45.3781 29.8916 45.6272 29.8535V28.1153C45.4777 28.1153 45.3034 28.1534 45.0792 28.1534C44.2574 28.1534 43.834 27.8489 43.834 26.8847V21.6828H45.6272V19.8939H43.834V17.3945H41.5302V19.8939H40.1604V21.6701H41.5302V27.075C41.5302 29.105 42.4891 29.9296 44.5189 29.9296H44.5064ZM50.9196 29.9296C53.7464 29.9296 55.5894 28.0138 55.5894 24.8166V24.7912C55.5894 21.6194 53.7215 19.6909 50.9072 19.6909C48.0928 19.6909 46.2374 21.6321 46.2374 24.7912V24.8166C46.2374 28.0012 48.0679 29.9296 50.9196 29.9296ZM50.9196 28.0646C49.4751 28.0646 48.5536 26.8847 48.5536 24.8166V24.7912C48.5536 22.7612 49.4875 21.5559 50.9072 21.5559C52.3517 21.5559 53.2732 22.7359 53.2732 24.7912V24.8166C53.2732 26.872 52.3517 28.0646 50.9196 28.0646ZM56.6728 32.9873H58.9517V28.09H58.9891C59.2643 28.666 59.6982 29.1479 60.2377 29.4768C60.7773 29.8058 61.3992 29.9675 62.0275 29.9423C64.4434 29.9423 66 28.0012 66 24.842V24.8293C66 21.6574 64.4434 19.7036 61.9902 19.7036C60.6204 19.7036 59.5494 20.4268 59.0015 21.6067H58.9517V19.9066H56.6728V33V32.9873ZM61.3177 27.9885C59.9106 27.9885 58.9268 26.7451 58.9268 24.8166C58.9268 22.8754 59.923 21.6448 61.3177 21.6448C62.7747 21.6448 63.6838 22.8501 63.6838 24.8166C63.6838 26.7705 62.7747 27.9885 61.3177 27.9885Z" fill="white"/>
</svg>
