<svg width="23" height="22" viewBox="0 0 23 22" fill="none" xmlns="http://www.w3.org/2000/svg">
<path d="M20.6667 -0.00012207H2.2963C1.68728 -0.00012207 1.10321 0.242199 0.67257 0.673533C0.241931 1.10487 0 1.68988 0 2.29988V13.7999C0 15.0649 1.03333 16.0999 2.2963 16.0999H11.1944V20.1249H5.4537C5.22532 20.1249 5.0063 20.2157 4.84481 20.3775C4.68332 20.5392 4.59259 20.7586 4.59259 20.9874C4.59259 21.2161 4.68332 21.4355 4.84481 21.5973C5.0063 21.759 5.22532 21.8499 5.4537 21.8499H18.6574C18.8858 21.8499 19.1048 21.759 19.2663 21.5973C19.4278 21.4355 19.5185 21.2161 19.5185 20.9874C19.5185 20.7586 19.4278 20.5392 19.2663 20.3775C19.1048 20.2157 18.8858 20.1249 18.6574 20.1249H12.9167V16.0999H20.6667C21.2757 16.0999 21.8598 15.8576 22.2904 15.4262C22.721 14.9949 22.963 14.4099 22.963 13.7999V2.29988C22.963 1.68988 22.721 1.10487 22.2904 0.673533C21.8598 0.242199 21.2757 -0.00012207 20.6667 -0.00012207Z" fill="#428D26"/>
<path d="M5.10925 9.77514C4.99082 9.94701 4.93867 10.1561 4.96248 10.3635C4.98629 10.571 5.08444 10.7628 5.23871 10.9032C5.39299 11.0437 5.5929 11.1234 5.80136 11.1274C6.00981 11.1314 6.21265 11.0596 6.37221 10.9251L5.10925 9.77514ZM9.91999 5.75014L10.5515 5.17514C10.4709 5.08806 10.3732 5.01858 10.2645 4.97107C10.1558 4.92356 10.0386 4.89903 9.91999 4.89903C9.80142 4.89903 9.68414 4.92356 9.57547 4.97107C9.46681 5.01858 9.36911 5.08806 9.28851 5.17514L9.91999 5.75014ZM13.043 9.20014L12.4115 9.77514C12.4921 9.86223 12.5898 9.93171 12.6984 9.97922C12.8071 10.0267 12.9244 10.0513 13.043 10.0513C13.1615 10.0513 13.2788 10.0267 13.3875 9.97922C13.4961 9.93171 13.5938 9.86223 13.6744 9.77514L13.043 9.20014ZM17.8652 5.17514C17.9943 5.00286 18.0544 4.78841 18.0336 4.57399C18.0129 4.35957 17.9127 4.16069 17.7529 4.01649C17.5931 3.8723 17.3852 3.79322 17.1701 3.79482C16.9551 3.79642 16.7484 3.87859 16.5907 4.02514L17.8537 5.17514H17.8652ZM6.38369 10.9251L10.5515 6.32514L9.28851 5.17514L5.10925 9.77514L6.37221 10.9251H6.38369ZM9.27702 6.32514L12.4115 9.77514L13.6744 8.62514L10.5515 5.17514L9.28851 6.32514H9.27702ZM13.6859 9.77514L17.8537 5.17514L16.5907 4.02514L12.4115 8.62514L13.6744 9.77514H13.6859Z" fill="#101010"/>
</svg>
